<svg width="41" height="19" viewBox="0 0 41 19" fill="none" xmlns="http://www.w3.org/2000/svg">
<g id="100">
<path d="M7.34659 0.238636V17.6932H4.18466V3.31534H4.08239L0 5.9233V3.02557L4.33807 0.238636H7.34659Z" fill="white"/>
<path d="M18.2301 18.0256C16.8267 18.0256 15.6222 17.6705 14.6165 16.9602C13.6165 16.2443 12.8466 15.2131 12.3068 13.8665C11.7727 12.5142 11.5057 10.8864 11.5057 8.98295C11.5114 7.07955 11.7812 5.46023 12.3153 4.125C12.8551 2.78409 13.625 1.76136 14.625 1.05682C15.6307 0.352273 16.8324 0 18.2301 0C19.6278 0 20.8295 0.352273 21.8352 1.05682C22.8409 1.76136 23.6108 2.78409 24.1449 4.125C24.6847 5.46591 24.9545 7.08523 24.9545 8.98295C24.9545 10.892 24.6847 12.5227 24.1449 13.875C23.6108 15.2216 22.8409 16.25 21.8352 16.9602C20.8352 17.6705 19.6335 18.0256 18.2301 18.0256ZM18.2301 15.358C19.321 15.358 20.1818 14.821 20.8125 13.7472C21.4489 12.6676 21.767 11.0795 21.767 8.98295C21.767 7.59659 21.6222 6.43182 21.3324 5.48864C21.0426 4.54545 20.6335 3.83523 20.1051 3.35796C19.5767 2.875 18.9517 2.63352 18.2301 2.63352C17.1449 2.63352 16.2869 3.1733 15.6562 4.25284C15.0256 5.3267 14.7074 6.90341 14.7017 8.98295C14.696 10.375 14.8352 11.5455 15.1193 12.4943C15.4091 13.4432 15.8182 14.1591 16.3466 14.642C16.875 15.1193 17.5028 15.358 18.2301 15.358Z" fill="white"/>
<path d="M34.2379 18.0256C32.8345 18.0256 31.63 17.6705 30.6243 16.9602C29.6243 16.2443 28.8544 15.2131 28.3146 13.8665C27.7805 12.5142 27.5135 10.8864 27.5135 8.98295C27.5192 7.07955 27.7891 5.46023 28.3232 4.125C28.8629 2.78409 29.6328 1.76136 30.6328 1.05682C31.6385 0.352273 32.8402 0 34.2379 0C35.6357 0 36.8374 0.352273 37.843 1.05682C38.8487 1.76136 39.6186 2.78409 40.1527 4.125C40.6925 5.46591 40.9624 7.08523 40.9624 8.98295C40.9624 10.892 40.6925 12.5227 40.1527 13.875C39.6186 15.2216 38.8487 16.25 37.843 16.9602C36.843 17.6705 35.6413 18.0256 34.2379 18.0256ZM34.2379 15.358C35.3288 15.358 36.1896 14.821 36.8203 13.7472C37.4567 12.6676 37.7749 11.0795 37.7749 8.98295C37.7749 7.59659 37.63 6.43182 37.3402 5.48864C37.0504 4.54545 36.6413 3.83523 36.1129 3.35796C35.5845 2.875 34.9595 2.63352 34.2379 2.63352C33.1527 2.63352 32.2947 3.1733 31.6641 4.25284C31.0334 5.3267 30.7152 6.90341 30.7095 8.98295C30.7038 10.375 30.843 11.5455 31.1271 12.4943C31.4169 13.4432 31.826 14.1591 32.3544 14.642C32.8828 15.1193 33.5107 15.358 34.2379 15.358Z" fill="white"/>
</g>
</svg>
