<svg width="56" height="20" viewBox="0 0 56 20" fill="none" xmlns="http://www.w3.org/2000/svg">
<path d="M7.34659 1.22594V18.6805H4.18466V4.30265H4.08239L0 6.9106V4.01287L4.33807 1.22594H7.34659Z" fill="#F9F9F9"/>
<path d="M18.2301 19.0129C16.8267 19.0129 15.6222 18.6578 14.6165 17.9475C13.6165 17.2316 12.8466 16.2004 12.3068 14.8538C11.7727 13.5015 11.5057 11.8737 11.5057 9.97026C11.5114 8.06685 11.7812 6.44753 12.3153 5.1123C12.8551 3.7714 13.625 2.74867 14.625 2.04412C15.6307 1.33958 16.8324 0.987305 18.2301 0.987305C19.6278 0.987305 20.8295 1.33958 21.8352 2.04412C22.8409 2.74867 23.6108 3.7714 24.1449 5.1123C24.6847 6.45321 24.9545 8.07253 24.9545 9.97026C24.9545 11.8794 24.6847 13.51 24.1449 14.8623C23.6108 16.2089 22.8409 17.2373 21.8352 17.9475C20.8352 18.6578 19.6335 19.0129 18.2301 19.0129ZM18.2301 16.3453C19.321 16.3453 20.1818 15.8083 20.8125 14.7345C21.4489 13.6549 21.767 12.0669 21.767 9.97026C21.767 8.5839 21.6222 7.41912 21.3324 6.47594C21.0426 5.53276 20.6335 4.82253 20.1051 4.34526C19.5767 3.86231 18.9517 3.62083 18.2301 3.62083C17.1449 3.62083 16.2869 4.1606 15.6562 5.24015C15.0256 6.31401 14.7074 7.89071 14.7017 9.97026C14.696 11.3623 14.8352 12.5328 15.1193 13.4816C15.4091 14.4305 15.8182 15.1464 16.3466 15.6294C16.875 16.1066 17.5028 16.3453 18.2301 16.3453Z" fill="#F9F9F9"/>
<path d="M34.2379 19.0129C32.8345 19.0129 31.63 18.6578 30.6243 17.9475C29.6243 17.2316 28.8544 16.2004 28.3146 14.8538C27.7805 13.5015 27.5135 11.8737 27.5135 9.97026C27.5192 8.06685 27.7891 6.44753 28.3232 5.1123C28.8629 3.7714 29.6328 2.74867 30.6328 2.04412C31.6385 1.33958 32.8402 0.987305 34.2379 0.987305C35.6357 0.987305 36.8374 1.33958 37.843 2.04412C38.8487 2.74867 39.6186 3.7714 40.1527 5.1123C40.6925 6.45321 40.9624 8.07253 40.9624 9.97026C40.9624 11.8794 40.6925 13.51 40.1527 14.8623C39.6186 16.2089 38.8487 17.2373 37.843 17.9475C36.843 18.6578 35.6413 19.0129 34.2379 19.0129ZM34.2379 16.3453C35.3288 16.3453 36.1896 15.8083 36.8203 14.7345C37.4567 13.6549 37.7749 12.0669 37.7749 9.97026C37.7749 8.5839 37.63 7.41912 37.3402 6.47594C37.0504 5.53276 36.6413 4.82253 36.1129 4.34526C35.5845 3.86231 34.9595 3.62083 34.2379 3.62083C33.1527 3.62083 32.2947 4.1606 31.6641 5.24015C31.0334 6.31401 30.7152 7.89071 30.7095 9.97026C30.7038 11.3623 30.843 12.5328 31.1271 13.4816C31.4169 14.4305 31.826 15.1464 32.3544 15.6294C32.8828 16.1066 33.5107 16.3453 34.2379 16.3453Z" fill="#F9F9F9"/>
<path d="M44.718 5.92188L48.093 11.5043L51.468 5.92188H53.2322L49.022 12.4673L53.2322 19.0128H51.468L48.093 13.6094L44.718 19.0128H42.9623L47.1214 12.4673L42.9623 5.92188H44.718Z" fill="#F9F9F9"/>
<path d="M46.718 5.92188L50.093 11.5043L53.468 5.92188H55.2322L51.022 12.4673L55.2322 19.0128H53.468L50.093 13.6094L46.718 19.0128H44.9623L49.1214 12.4673L44.9623 5.92188H46.718Z" fill="#F9F9F9"/>
</svg>
